  <svg xmlns:xlink="http://www.w3.org/1999/xlink" viewBox="0 -2154.8 16850.3 3304.9" xmlns="http://www.w3.org/2000/svg">
    <title>r(\varphi) = 2 - 2sin(\varphi) + \frac{sin(\varphi) |cos(\varphi)|^{\frac{1}{2}}}{sin(\varphi) + 1.4}</title>
    <defs aria-hidden="true">
        <path stroke-width="1" id="E1-MJMATHI-72" d="M21 287Q22 290 23 295T28 317T38 348T53 381T73 411T99 433T132 442Q161 442 183 430T214 408T225 388Q227 382 228 382T236 389Q284 441 347 441H350Q398 441 422 400Q430 381 430 363Q430 333 417 315T391 292T366 288Q346 288 334 299T322 328Q322 376 378 392Q356 405 342 405Q286 405 239 331Q229 315 224 298T190 165Q156 25 151 16Q138 -11 108 -11Q95 -11 87 -5T76 7T74 17Q74 30 114 189T154 366Q154 405 128 405Q107 405 92 377T68 316T57 280Q55 278 41 278H27Q21 284 21 287Z"></path>
        <path stroke-width="1" id="E1-MJMAIN-28" d="M94 250Q94 319 104 381T127 488T164 576T202 643T244 695T277 729T302 750H315H319Q333 750 333 741Q333 738 316 720T275 667T226 581T184 443T167 250T184 58T225 -81T274 -167T316 -220T333 -241Q333 -250 318 -250H315H302L274 -226Q180 -141 137 -14T94 250Z"></path>
        <path stroke-width="1" id="E1-MJMATHI-3C6" d="M92 210Q92 176 106 149T142 108T185 85T220 72L235 70L237 71L250 112Q268 170 283 211T322 299T370 375T429 423T502 442Q547 442 582 410T618 302Q618 224 575 152T457 35T299 -10Q273 -10 273 -12L266 -48Q260 -83 252 -125T241 -179Q236 -203 215 -212Q204 -218 190 -218Q159 -215 159 -185Q159 -175 214 -2L209 0Q204 2 195 5T173 14T147 28T120 46T94 71T71 103T56 142T50 190Q50 238 76 311T149 431H162Q183 431 183 423Q183 417 175 409Q134 361 114 300T92 210ZM574 278Q574 320 550 344T486 369Q437 369 394 329T323 218Q309 184 295 109L286 64Q304 62 306 62Q423 62 498 131T574 278Z"></path>
        <path stroke-width="1" id="E1-MJMAIN-29" d="M60 749L64 750Q69 750 74 750H86L114 726Q208 641 251 514T294 250Q294 182 284 119T261 12T224 -76T186 -143T145 -194T113 -227T90 -246Q87 -249 86 -250H74Q66 -250 63 -250T58 -247T55 -238Q56 -237 66 -225Q221 -64 221 250T66 725Q56 737 55 738Q55 746 60 749Z"></path>
        <path stroke-width="1" id="E1-MJMAIN-3D" d="M56 347Q56 360 70 367H707Q722 359 722 347Q722 336 708 328L390 327H72Q56 332 56 347ZM56 153Q56 168 72 173H708Q722 163 722 153Q722 140 707 133H70Q56 140 56 153Z"></path>
        <path stroke-width="1" id="E1-MJMAIN-32" d="M109 429Q82 429 66 447T50 491Q50 562 103 614T235 666Q326 666 387 610T449 465Q449 422 429 383T381 315T301 241Q265 210 201 149L142 93L218 92Q375 92 385 97Q392 99 409 186V189H449V186Q448 183 436 95T421 3V0H50V19V31Q50 38 56 46T86 81Q115 113 136 137Q145 147 170 174T204 211T233 244T261 278T284 308T305 340T320 369T333 401T340 431T343 464Q343 527 309 573T212 619Q179 619 154 602T119 569T109 550Q109 549 114 549Q132 549 151 535T170 489Q170 464 154 447T109 429Z"></path>
        <path stroke-width="1" id="E1-MJMAIN-2212" d="M84 237T84 250T98 270H679Q694 262 694 250T679 230H98Q84 237 84 250Z"></path>
        <path stroke-width="1" id="E1-MJMATHI-73" d="M131 289Q131 321 147 354T203 415T300 442Q362 442 390 415T419 355Q419 323 402 308T364 292Q351 292 340 300T328 326Q328 342 337 354T354 372T367 378Q368 378 368 379Q368 382 361 388T336 399T297 405Q249 405 227 379T204 326Q204 301 223 291T278 274T330 259Q396 230 396 163Q396 135 385 107T352 51T289 7T195 -10Q118 -10 86 19T53 87Q53 126 74 143T118 160Q133 160 146 151T160 120Q160 94 142 76T111 58Q109 57 108 57T107 55Q108 52 115 47T146 34T201 27Q237 27 263 38T301 66T318 97T323 122Q323 150 302 164T254 181T195 196T148 231Q131 256 131 289Z"></path>
        <path stroke-width="1" id="E1-MJMATHI-69" d="M184 600Q184 624 203 642T247 661Q265 661 277 649T290 619Q290 596 270 577T226 557Q211 557 198 567T184 600ZM21 287Q21 295 30 318T54 369T98 420T158 442Q197 442 223 419T250 357Q250 340 236 301T196 196T154 83Q149 61 149 51Q149 26 166 26Q175 26 185 29T208 43T235 78T260 137Q263 149 265 151T282 153Q302 153 302 143Q302 135 293 112T268 61T223 11T161 -11Q129 -11 102 10T74 74Q74 91 79 106T122 220Q160 321 166 341T173 380Q173 404 156 404H154Q124 404 99 371T61 287Q60 286 59 284T58 281T56 279T53 278T49 278T41 278H27Q21 284 21 287Z"></path>
        <path stroke-width="1" id="E1-MJMATHI-6E" d="M21 287Q22 293 24 303T36 341T56 388T89 425T135 442Q171 442 195 424T225 390T231 369Q231 367 232 367L243 378Q304 442 382 442Q436 442 469 415T503 336T465 179T427 52Q427 26 444 26Q450 26 453 27Q482 32 505 65T540 145Q542 153 560 153Q580 153 580 145Q580 144 576 130Q568 101 554 73T508 17T439 -10Q392 -10 371 17T350 73Q350 92 386 193T423 345Q423 404 379 404H374Q288 404 229 303L222 291L189 157Q156 26 151 16Q138 -11 108 -11Q95 -11 87 -5T76 7T74 17Q74 30 112 180T152 343Q153 348 153 366Q153 405 129 405Q91 405 66 305Q60 285 60 284Q58 278 41 278H27Q21 284 21 287Z"></path>
        <path stroke-width="1" id="E1-MJMAIN-2B" d="M56 237T56 250T70 270H369V420L370 570Q380 583 389 583Q402 583 409 568V270H707Q722 262 722 250T707 230H409V-68Q401 -82 391 -82H389H387Q375 -82 369 -68V230H70Q56 237 56 250Z"></path>
        <path stroke-width="1" id="E1-MJMAIN-7C" d="M139 -249H137Q125 -249 119 -235V251L120 737Q130 750 139 750Q152 750 159 735V-235Q151 -249 141 -249H139Z"></path>
        <path stroke-width="1" id="E1-MJMATHI-63" d="M34 159Q34 268 120 355T306 442Q362 442 394 418T427 355Q427 326 408 306T360 285Q341 285 330 295T319 325T330 359T352 380T366 386H367Q367 388 361 392T340 400T306 404Q276 404 249 390Q228 381 206 359Q162 315 142 235T121 119Q121 73 147 50Q169 26 205 26H209Q321 26 394 111Q403 121 406 121Q410 121 419 112T429 98T420 83T391 55T346 25T282 0T202 -11Q127 -11 81 37T34 159Z"></path>
        <path stroke-width="1" id="E1-MJMATHI-6F" d="M201 -11Q126 -11 80 38T34 156Q34 221 64 279T146 380Q222 441 301 441Q333 441 341 440Q354 437 367 433T402 417T438 387T464 338T476 268Q476 161 390 75T201 -11ZM121 120Q121 70 147 48T206 26Q250 26 289 58T351 142Q360 163 374 216T388 308Q388 352 370 375Q346 405 306 405Q243 405 195 347Q158 303 140 230T121 120Z"></path>
        <path stroke-width="1" id="E1-MJMAIN-31" d="M213 578L200 573Q186 568 160 563T102 556H83V602H102Q149 604 189 617T245 641T273 663Q275 666 285 666Q294 666 302 660V361L303 61Q310 54 315 52T339 48T401 46H427V0H416Q395 3 257 3Q121 3 100 0H88V46H114Q136 46 152 46T177 47T193 50T201 52T207 57T213 61V578Z"></path>
        <path stroke-width="1" id="E1-MJMAIN-2E" d="M78 60Q78 84 95 102T138 120Q162 120 180 104T199 61Q199 36 182 18T139 0T96 17T78 60Z"></path>
        <path stroke-width="1" id="E1-MJMAIN-34" d="M462 0Q444 3 333 3Q217 3 199 0H190V46H221Q241 46 248 46T265 48T279 53T286 61Q287 63 287 115V165H28V211L179 442Q332 674 334 675Q336 677 355 677H373L379 671V211H471V165H379V114Q379 73 379 66T385 54Q393 47 442 46H471V0H462ZM293 211V545L74 212L183 211H293Z"></path>
    </defs>
    <g stroke="currentColor" fill="currentColor" stroke-width="0" transform="matrix(1 0 0 -1 0 0)" aria-hidden="true">
        <use xlink:href="#E1-MJMATHI-72" x="0" y="0"></use>
        <use xlink:href="#E1-MJMAIN-28" x="451" y="0"></use>
        <use xlink:href="#E1-MJMATHI-3C6" x="841" y="0"></use>
        <use xlink:href="#E1-MJMAIN-29" x="1495" y="0"></use>
        <use xlink:href="#E1-MJMAIN-3D" x="2162" y="0"></use>
        <use xlink:href="#E1-MJMAIN-32" x="3219" y="0"></use>
        <use xlink:href="#E1-MJMAIN-2212" x="3941" y="0"></use>
        <use xlink:href="#E1-MJMAIN-32" x="4942" y="0"></use>
        <use xlink:href="#E1-MJMATHI-73" x="5443" y="0"></use>
        <use xlink:href="#E1-MJMATHI-69" x="5912" y="0"></use>
        <use xlink:href="#E1-MJMATHI-6E" x="6258" y="0"></use>
        <use xlink:href="#E1-MJMAIN-28" x="6858" y="0"></use>
        <use xlink:href="#E1-MJMATHI-3C6" x="7248" y="0"></use>
        <use xlink:href="#E1-MJMAIN-29" x="7902" y="0"></use>
        <use xlink:href="#E1-MJMAIN-2B" x="8514" y="0"></use>
        <g transform="translate(9292,0)">
            <g transform="translate(342,0)">
                <rect stroke="none" width="7095" height="60" x="0" y="220"></rect>
                <g transform="translate(60,770)">
                    <use xlink:href="#E1-MJMATHI-73" x="0" y="0"></use>
                    <use xlink:href="#E1-MJMATHI-69" x="469" y="0"></use>
                    <use xlink:href="#E1-MJMATHI-6E" x="815" y="0"></use>
                    <use xlink:href="#E1-MJMAIN-28" x="1415" y="0"></use>
                    <use xlink:href="#E1-MJMATHI-3C6" x="1805" y="0"></use>
                    <use xlink:href="#E1-MJMAIN-29" x="2459" y="0"></use>
                    <use xlink:href="#E1-MJMAIN-7C" x="2849" y="0"></use>
                    <use xlink:href="#E1-MJMATHI-63" x="3127" y="0"></use>
                    <use xlink:href="#E1-MJMATHI-6F" x="3561" y="0"></use>
                    <use xlink:href="#E1-MJMATHI-73" x="4046" y="0"></use>
                    <use xlink:href="#E1-MJMAIN-28" x="4516" y="0"></use>
                    <use xlink:href="#E1-MJMATHI-3C6" x="4905" y="0"></use>
                    <use xlink:href="#E1-MJMAIN-29" x="5560" y="0"></use>
                    <g transform="translate(5949,0)">
                        <use xlink:href="#E1-MJMAIN-7C" x="0" y="0"></use>
                        <g transform="translate(278,508)">
                            <g transform="translate(120,0)">
                                <rect stroke="none" width="407" height="60" x="0" y="146"></rect>
                                <use transform="scale(0.574)" xlink:href="#E1-MJMAIN-31" x="104" y="647"></use>
                                <use transform="scale(0.574)" xlink:href="#E1-MJMAIN-32" x="104" y="-698"></use>
                            </g>
                        </g>
                    </g>
                </g>
                <g transform="translate(871,-771)">
                    <use xlink:href="#E1-MJMATHI-73" x="0" y="0"></use>
                    <use xlink:href="#E1-MJMATHI-69" x="469" y="0"></use>
                    <use xlink:href="#E1-MJMATHI-6E" x="815" y="0"></use>
                    <use xlink:href="#E1-MJMAIN-28" x="1415" y="0"></use>
                    <use xlink:href="#E1-MJMATHI-3C6" x="1805" y="0"></use>
                    <use xlink:href="#E1-MJMAIN-29" x="2459" y="0"></use>
                    <use xlink:href="#E1-MJMAIN-2B" x="3071" y="0"></use>
                    <g transform="translate(4071,0)">
                        <use xlink:href="#E1-MJMAIN-31"></use>
                        <use xlink:href="#E1-MJMAIN-2E" x="500" y="0"></use>
                        <use xlink:href="#E1-MJMAIN-34" x="779" y="0"></use>
                    </g>
                </g>
            </g>
        </g>
    </g>
</svg>
