<svg viewBox="0 0 300 300"
  xmlns="http://www.w3.org/2000/svg">
  <style>
    .axis-text {
      font-family: Arial,Helvetica,Geneva,sans-serif;
      font-size: 0.7em;
    }
  </style>
  <defs>
    <marker id="a" stroke="#666" stroke-opacity="1" fill="#666" fill-opacity="1" stroke-width="0" orient="auto" markerUnits="strokeWidth" refY="5" refX=".1" display="inherit" viewBox="0 0 80 80" markerHeight="64" markerWidth="64">
      <path d="M0 0l10 5-10 5z"/>
    </marker>
    <marker id="b" stroke="#666" stroke-opacity="1" fill="#666" fill-opacity="1" stroke-width="0" orient="auto" markerUnits="strokeWidth" refY="5" refX=".1" display="inherit" viewBox="0 0 80 80" markerHeight="64" markerWidth="64">
      <path d="M0 0l10 5-10 5z"/>
    </marker>
    <marker id="c" stroke="#00f" stroke-opacity=".5" fill="#00f" fill-opacity=".5" stroke-width="0" orient="auto" markerUnits="strokeWidth" refY="5" refX=".1" display="inherit" viewBox="0 0 90 90" markerHeight="27" markerWidth="27">
      <path d="M0 0l10 5-10 5z"/>
    </marker>
  </defs>
  <g stroke="#666">
    <!-- axes -->
    <path marker-end="url(#a)" fill="none" d="M4 85.714h284"/>
    <path marker-end="url(#b)" fill="none" d="M150 296V12"/>
    <!-- grid -->
    <path stroke-linecap="round" stroke-linejoin="round" stroke-opacity=".25" d="M159 86v5m8-5v5m9-5v5m8-5v5m9-91v300m8-214v5m9-5v5m9-5v5m8-5v5m9-91v300m8-214v5m9-5v5m8-5v5m9-5v5m9-91v300m8-214v5m-146-5v5m-8-5v5m-9-5v5m-8-5v5m-9-91v300M99 86v5m-9-5v5m-9-5v5m-8-5v5M64 0v300M56 86v5m-9-5v5m-8-5v5m-9-5v5M21 0v300M13 86v5m-9-5v5" />
    <path stroke-linecap="round" stroke-linejoin="round" stroke-opacity=".25" d="M145 77h5m-5-8h5m-5-9h5m-5-9h5M0 43h300m-155-9h5m-5-8h5m-5-9h5m-5-8h5m-5 85h5m-5 9h5m-5 8h5m-5 9h5M0 129h300m-155 8h5m-5 9h5m-5 8h5m-5 9h5M0 171h300m-155 9h5m-5 9h5m-5 8h5m-5 9h5M0 214h300m-155 9h5m-5 8h5m-5 9h5m-5 9h5M0 257h300m-155 9h5m-5 8h5m-5 9h5m-5 8h5" />
  </g>
  <!-- angle -->
  <path stroke-linecap="round" stroke-linejoin="round" stroke="#FF7F00" fill="#FF7F00" fill-opacity=".3" d="M150 85.714l27.648 53.25A60 60 0 00210 85.714h-60" style="position:absolute;transition:fill 100ms ease 0s,fill-opacity 100ms ease 0s,stroke 100ms ease 0s,stroke-opacity 100ms ease 0s"/>
  <!-- radius -->
  <path marker-end="url(#c)" stroke="#00f" stroke-opacity=".5" stroke-width="3" fill="none" d="M150 86l46.878 90.999"/>
  <!-- hearth -->
  <path fill="none" stroke-linecap="round" stroke-linejoin="round" stroke="red" stroke-width="4" d="M235.714 85.714l-.458-.703-.473-.703-.487-.703-.502-.704-.516-.702-.53-.7-.552-.708-.567-.705-.581-.702-.603-.706-.619-.702-.64-.705-.663-.707-.678-.701-.7-.701-.704-.682-.705-.661-.706-.642-.707-.623-.7-.598-.707-.586-.706-.567-.705-.55-.703-.53-.701-.515-.707-.502-.703-.485-.7-.469-.705-.457-.701-.441-.704-.43-.7-.414-.704-.403-.706-.392-.701-.376-.704-.366-.706-.355-.7-.341-.701-.33-.704-.32-.705-.308-.706-.299-.707-.288-.7-.274-.701-.264-.702-.254-.702-.244-.701-.234-.702-.223-.702-.214-.701-.204-.701-.193-.7-.184-.708-.176-.706-.166-.705-.156-.704-.146-.702-.136-.7-.127-.707-.118-.704-.108-.702-.1-.708-.089-.705-.08-.702-.07-.707-.062-.704-.052-.7-.042-.705-.033-.7-.023-.705-.014-.7-.005-.704.005-.706.015-.702.024-.704.035-.706.044-.7.053-.702.064-.703.074-.704.085-.704.094-.705.106-.704.115-.704.127-.703.137-.701.148-.706.16-.704.172-.701.183-.705.195-.7.207-.703.22-.704.232-.705.246-.705.26-.703.274-.702.287-.706.303-.702.317-.703.334-.702.35-.702.367-.704.387-.7.403-.705.425-.703.446-.702.467-.7.49-.701.516-.702.543-.7.572-.702.606-.704.643-.702.682-.679.701-.636.7-.597.703-.558.701-.522.701-.487.703-.45.7-.419.702-.384.7-.352.703-.318.702-.284.7-.252.7-.217.701-.184.7-.151.701-.12.703-.087.702-.06.701-.038.705-.019.71-.006.716-.008-.704-.019-.706-.036-.703-.06-.705-.088-.703-.118-.7-.15-.703-.184-.7-.217-.702-.25-.7-.285-.7-.317-.702-.352-.703-.383-.7-.417-.702-.45-.7-.487-.703-.52-.7-.559-.703-.596-.701-.635-.701-.678-.702-.702-.682-.703-.642-.701-.606-.703-.575-.702-.544-.7-.516-.7-.49-.702-.468-.702-.445-.704-.426-.7-.403-.704-.387-.701-.367-.703-.35-.703-.334-.701-.318-.705-.303-.702-.288-.703-.273-.704-.26-.705-.247-.704-.233-.702-.22-.7-.207-.705-.195-.7-.183-.704-.172-.706-.16-.701-.149-.703-.137-.703-.127-.705-.116-.704-.106-.704-.095-.704-.084-.703-.075-.702-.064-.7-.054-.706-.044-.703-.035-.702-.024-.706-.016-.703-.005-.7.004-.705.014-.7.023-.705.033-.7.042-.704.051-.707.061-.702.07-.705.08-.707.09-.702.098-.705.108-.706.118-.7.126-.702.136-.704.146-.705.156-.706.165-.708.176-.7.183-.7.194-.702.203-.702.213-.702.223-.702.234-.701.243-.702.254-.7.264-.7.274-.708.287-.706.298-.705.309-.704.319-.702.33-.7.34-.706.355-.703.365-.702.377-.706.391-.703.403-.7.413-.705.43-.701.44-.705.457-.7.469-.704.485-.706.501-.702.514-.703.531-.705.549-.706.567-.707.585-.7.597-.7.617-.707.641-.706.661-.703.681-.702.7-.678.701-.663.707-.64.704-.62.702-.603.706-.582.701-.567.705-.552.706-.53.701-.517.702-.502.703-.488.703-.473.703-.46.702-.444.702-.432.7-.422.708-.41.706-.395.704-.382.701-.373.707-.361.705-.348.7-.339.707-.326.703-.318.707-.306.703-.297.708-.285.703-.277.708-.264.702-.257.706-.245.701-.236.704-.229.708-.217.702-.209.705-.2.708-.19.702-.182.704-.173.707-.165.71-.155.702-.147.705-.138.707-.13.709-.12.7-.113.704-.104.705-.097.706-.087.708-.08.71-.07.7-.063.703-.055.703-.046.704-.038.705-.03.706-.023.707-.013.707-.006.708.002.709.011.708.019.71.027.708.035.71.044.708.052.709.06.709.068.708.077.707.085.707.093.706.1.706.11.705.118.703.126.703.134.701.142.7.153.709.16.707.17.706.178.703.186.702.194.7.205.708.214.706.222.703.23.701.243.709.25.705.26.703.268.7.28.707.288.704.297.7.309.707.318.703.33.709.34.705.349.701.361.707.37.702.384.707.392.703.406.707.415.703.43.706.437.702.451.705.467.708.475.704.49.706.498.7.513.703.527.705.543.708.552.7.567.704.581.704.598.705.612.707.628.707.636.7.652.7.667.701.682.701.698.701.706.693.705.679.705.664.704.65.702.637.7.624.707.617.703.605.7.593.705.587.7.576.706.57.7.56.705.557.708.552.703.542.705.539.7.53.703.526.705.524.708.523.701.514.703.513.705.512.707.51.708.51.701.505.702.504.704.505.705.506.706.508.707.509.708.51.7.508.7.51.703.513.702.517.704.521.704.526.705.53.705.536.707.542.707.548.709.555.7.555.702.562.703.57.704.58.705.587.707.597.708.607.701.61.703.62.705.63.707.643.7.646.703.659.706.67.708.685.703.69.705.702.7.708.685.702.679.708.664.701.658.705.652.709.637.7.632.705.625.706.62.71.615.71.598.702.593.703.587.704.581.704.575.705.569.706.563.706.556.705.55.705.544.704.537.703.53.703.524.7.528.714.521.712.515.71.506.71.5.705.492.704.485.701.488.716.48.712.474.71.464.707.457.703.46.719.45.716.444.713.434.709.424.705.416.702.419.719.409.716.4.712.39.709.379.704.382.725.373.722.361.719.351.715.34.71.33.708.316.702.32.73.308.727.297.723.284.721.272.717.26.713.246.709.234.703.236.746.223.745.209.745.195.745.182.744.168.744.154.743.139.744.125.744.11.744.094.744.08.746.064.748.048.753.033.768.016 1.049.016-1.05.033-.767.048-.753.064-.748.08-.746.094-.744.11-.744.125-.744.14-.744.153-.743.168-.744.182-.744.195-.745.21-.745.222-.745.22-.7.235-.706.247-.711.26-.715.272-.719.284-.722.297-.726.308-.728.32-.73.317-.704.33-.708.34-.712.35-.716.362-.72.372-.723.37-.7.38-.706.39-.71.4-.714.409-.717.419-.72.416-.703.425-.706.434-.71.443-.714.451-.717.448-.7.457-.705.465-.708.473-.711.48-.714.49-.716.484-.702.493-.705.5-.707.507-.71.514-.711.521-.713.529-.715.524-.701.53-.703.538-.704.544-.705.55-.706.557-.706.563-.706.57-.706.574-.706.581-.706.587-.704.593-.703.6-.703.604-.7.62-.71.626-.707.632-.705.637-.702.653-.71.658-.706.664-.702.68-.708.684-.703.7-.709.706-.703.703-.69.708-.685.706-.672.703-.659.7-.647.708-.643.705-.631.703-.621.701-.61.709-.607.706-.598.706-.588.704-.58.703-.57.701-.563.7-.555.71-.555.707-.549.706-.542.706-.536.705-.53.704-.526.704-.522.702-.517.702-.513.701-.51.7-.508.708-.511.707-.51.706-.507.705-.506.704-.505.702-.504.701-.504.709-.51.706-.512.705-.511.704-.513.7-.514.709-.522.705-.525.703-.526.7-.53.706-.538.703-.542.708-.552.704-.556.701-.56.706-.57.7-.576.706-.587.7-.593.704-.604.706-.617.7-.624.703-.636.704-.65.705-.664.706-.678.706-.693.698-.7.683-.701.667-.7.652-.701.644-.708.628-.707.613-.706.597-.705.582-.704.567-.703.552-.7.544-.708.528-.705.513-.702.499-.7.49-.706.475-.703.466-.709.453-.705.437-.701.43-.707.415-.702.406-.707.393-.702.384-.707.37-.703.362-.706.349-.701.34-.705.331-.709.318-.703.31-.706.297-.7.289-.704.28-.706.272-.71.26-.703.25-.706.243-.708.23-.7.223-.704.214-.706.205-.708.197-.71.187-.702.177-.703.17-.706.16-.707.154-.709.144-.71.134-.701.126-.703.118-.703.11-.705.1-.706.093-.706.085-.707.077-.707.068-.708.06-.709.052-.709.044-.709.035-.709.027-.709.019-.709.01-.708.003-.709-.006-.708-.013-.707-.022-.707-.03-.706-.039-.705-.046-.704-.055-.703-.062-.702-.07-.701-.08-.71-.088-.708-.097-.706-.104-.705-.112-.703-.12-.701-.13-.71-.14-.706-.146-.705-.155-.702-.165-.71-.173-.707-.182-.704-.19-.702-.2-.708-.21-.705-.216-.702-.229-.708-.236-.704-.245-.7-.257-.707-.264-.702-.277-.708-.285-.703-.297-.708-.306-.703-.318-.707-.326-.703-.34-.706-.347-.701-.36-.705-.374-.707-.382-.701-.396-.704-.409-.706-.422-.707-.432-.7-.424-.67" />
  <text x="192.857" text-anchor="middle" y="88.714" dy="1.6ex" class="axis-text">1</text>
  <text x="235.714" text-anchor="middle" y="88.714" dy="1.6ex" class="axis-text">2</text>
  <text x="278.571" text-anchor="middle" y="88.714" dy="1.6ex" class="axis-text">3</text>
  <text x="107.143" text-anchor="middle" y="88.714" dy="1.6ex" class="axis-text">−1</text>
  <text x="64.286" text-anchor="middle" y="88.714" dy="1.6ex" class="axis-text">−2</text>
  <text x="21.429" text-anchor="middle" y="88.714" dy="1.6ex" class="axis-text">−3</text>
  <text x="144" text-anchor="end" y="42.857" dy=".6ex" class="axis-text">1</text>
  <text x="144" text-anchor="end" y="128.571" dy=".6ex" class="axis-text">−1</text>
  <text x="144" text-anchor="end" y="171.429" dy=".6ex" class="axis-text">−2</text>
  <text x="144" text-anchor="end" y="214.286" dy=".6ex" class="axis-text">−3</text>
  <text x="144" text-anchor="end" y="257.143" dy=".6ex" class="axis-text">−4</text>
  <!-- Variables -->
  <text x="215" y="125" text-anchor="end" font-size="1em" fill="#FF7F00">φ</text>
  <text x="175" y="160" text-anchor="end" font-size="1em" fill="#00f">r</text>
</svg>
